<svg width="300" height="300" viewBox="0 0 300 300" fill="none" xmlns="http://www.w3.org/2000/svg">
<g clip-path="url(#clip0_152_2)">
<path d="M76.25 231.25C70 231.25 65 226.25 65 220V202.5H11.25C7.50002 202.5 2.50002 200 1.25002 196.25C2.28286e-05 191.25 2.28882e-05 187.5 2.50002 183.75L67.5 97.5C70 93.75 75 92.5 80 93.75C85 95 87.5 100 87.5 105V180H97.5C103.75 180 108.75 185 108.75 191.25C108.75 197.5 103.75 202.5 97.5 202.5H87.5V220C87.5 226.25 82.5 231.25 76.25 231.25ZM33.75 178.75H65V137.5L33.75 178.75ZM267.5 217.5C261.25 217.5 256.25 212.5 256.25 206.25V188.75H202.5C198.75 188.75 193.75 186.25 192.5 182.5C190 178.75 191.25 173.75 193.75 171.25L258.75 85C261.25 81.25 266.25 80 271.25 81.25C276.25 82.5 278.75 87.5 278.75 92.5V167.5H288.75C295 167.5 300 172.5 300 178.75C300 185 295 190 288.75 190H278.75V207.5C278.75 212.5 273.75 217.5 267.5 217.5ZM225 166.25H256.25V125L225 166.25ZM156.25 175C142.5 175 131.25 167.5 121.25 155C112.5 143.75 108.75 127.5 108.75 112.5C108.75 96.25 113.75 81.25 121.25 70C130 57.5 142.5 50 156.25 50C170 50 181.25 57.5 191.25 70C200 81.25 203.75 97.5 203.75 112.5C203.75 128.75 198.75 143.75 191.25 155C181.25 168.75 168.75 175 156.25 175ZM156.25 68.75C140 68.75 127.5 88.75 127.5 112.5C127.5 136.25 141.25 156.25 156.25 156.25C172.5 156.25 185 136.25 185 112.5C185 88.75 171.25 68.75 156.25 68.75Z" fill="#25406C"/>
<path d="M103.75 202.5C103.75 204.158 108.754 205.747 117.662 206.919C126.57 208.092 138.652 208.75 151.25 208.75C163.848 208.75 175.93 208.092 184.838 206.919C193.746 205.747 198.75 204.158 198.75 202.5C198.75 200.842 193.746 199.253 184.838 198.081C175.93 196.908 163.848 196.25 151.25 196.25C138.652 196.25 126.57 196.908 117.662 198.081C108.754 199.253 103.75 200.842 103.75 202.5Z" fill="#BDD7FF"/>
<path d="M2.5 243.75C2.5 245.408 7.50445 246.997 16.4124 248.169C25.3204 249.342 37.4022 250 50 250C62.5978 250 74.6796 249.342 83.5876 248.169C92.4956 246.997 97.5 245.408 97.5 243.75C97.5 242.092 92.4956 240.503 83.5876 239.331C74.6796 238.158 62.5978 237.5 50 237.5C37.4022 237.5 25.3204 238.158 16.4124 239.331C7.50445 240.503 2.5 242.092 2.5 243.75Z" fill="#BDD7FF"/>
<path d="M193.75 233.75C193.75 235.408 198.754 236.997 207.662 238.169C216.57 239.342 228.652 240 241.25 240C253.848 240 265.93 239.342 274.838 238.169C283.746 236.997 288.75 235.408 288.75 233.75C288.75 232.092 283.746 230.503 274.838 229.331C265.93 228.158 253.848 227.5 241.25 227.5C228.652 227.5 216.57 228.158 207.662 229.331C198.754 230.503 193.75 232.092 193.75 233.75Z" fill="#BDD7FF"/>
</g>
<defs>
<clipPath id="clip0_152_2">
<rect width="300" height="300" fill="white"/>
</clipPath>
</defs>
</svg>
