<svg width="117" height="117" viewBox="0 0 117 117" fill="none" xmlns="http://www.w3.org/2000/svg">
<path d="M87.67 102.832H29.41C23.7428 102.832 19.1268 98.216 19.1268 92.5488V24.2227C19.1268 18.5555 23.7428 13.9395 29.41 13.9395H87.6586C93.3258 13.9395 97.9418 18.5555 97.9418 24.2227V92.5488C97.9532 98.216 93.3372 102.832 87.67 102.832ZM29.41 20.7949C27.5247 20.7949 25.9822 22.3374 25.9822 24.2227V92.5488C25.9822 94.4341 27.5247 95.9766 29.41 95.9766H87.6586C89.5439 95.9766 91.0863 94.4341 91.0863 92.5488V24.2227C91.0863 22.3374 89.5439 20.7949 87.6586 20.7949H29.41Z" fill="#25406C"/>
<path d="M38.2421 59.2427C36.5054 59.2427 35.1 57.8373 35.1 56.1006V21.2748C35.1 19.5381 36.5054 18.1327 38.2421 18.1327C39.9788 18.1327 41.3842 19.5381 41.3842 21.2748V56.1006C41.3842 57.8373 39.9788 59.2427 38.2421 59.2427ZM59.4826 59.2427C57.7459 59.2427 56.3405 57.8373 56.3405 56.1006V21.2748C56.3405 19.5381 57.7459 18.1327 59.4826 18.1327C61.2193 18.1327 62.6247 19.5381 62.6247 21.2748V56.1006C62.6247 57.8373 61.2193 59.2427 59.4826 59.2427Z" fill="#25406C"/>
<path d="M59.3569 59.1855C58.5571 59.1855 57.7459 58.8771 57.1403 58.2601L46.9028 48.0226C45.6803 46.8 45.6803 44.8005 46.9028 43.5779C48.1254 42.3554 50.1249 42.3554 51.3474 43.5779L61.5849 53.8154C62.8075 55.038 62.8075 57.0375 61.5849 58.2601C60.968 58.8885 60.1567 59.1855 59.3569 59.1855Z" fill="#25406C"/>
<path d="M38.4706 59.277C37.648 59.277 36.8253 58.957 36.2197 58.3172C35.0086 57.0718 35.0429 55.0837 36.2883 53.8726L46.4687 44.0007C47.7141 42.7896 49.7021 42.8238 50.9133 44.0692C52.1244 45.3147 52.0901 47.3027 50.8447 48.5139L40.6529 58.3857C40.0474 58.9799 39.259 59.277 38.4706 59.277Z" fill="#25406C"/>
</svg>
