<svg width="51" height="61" viewBox="0 0 51 61" fill="none" xmlns="http://www.w3.org/2000/svg">
<path d="M43.7443 60.9355H6.78437C3.18913 60.9355 0.260742 57.8199 0.260742 53.9947V7.87642C0.260742 4.05123 3.18913 0.935547 6.78437 0.935547H43.7371C47.3323 0.935547 50.2607 4.05123 50.2607 7.87642V53.9947C50.268 57.8199 47.3396 60.9355 43.7443 60.9355ZM6.78437 5.5628C5.58837 5.5628 4.60983 6.60393 4.60983 7.87642V53.9947C4.60983 55.2672 5.58837 56.3083 6.78437 56.3083H43.7371C44.9331 56.3083 45.9116 55.2672 45.9116 53.9947V7.87642C45.9116 6.60393 44.9331 5.5628 43.7371 5.5628H6.78437Z" fill="#25406C"/>
<path d="M12.5142 29.9761C11.4009 29.9761 10.5 29.0752 10.5 27.9619V5.6377C10.5 4.52441 11.4009 3.62354 12.5142 3.62354C13.6274 3.62354 14.5283 4.52441 14.5283 5.6377V27.9619C14.5283 29.0752 13.6274 29.9761 12.5142 29.9761ZM26.1299 29.9761C25.0166 29.9761 24.1157 29.0752 24.1157 27.9619V5.6377C24.1157 4.52441 25.0166 3.62354 26.1299 3.62354C27.2432 3.62354 28.144 4.52441 28.144 5.6377V27.9619C28.144 29.0752 27.2432 29.9761 26.1299 29.9761Z" fill="#25406C"/>
<path d="M26.0493 29.9395C25.5366 29.9395 25.0166 29.7417 24.6284 29.3462L18.0659 22.7837C17.2822 22 17.2822 20.7183 18.0659 19.9346C18.8496 19.1509 20.1313 19.1509 20.915 19.9346L27.4775 26.4971C28.2612 27.2808 28.2612 28.5625 27.4775 29.3462C27.082 29.749 26.562 29.9395 26.0493 29.9395Z" fill="#25406C"/>
<path d="M12.6606 29.998C12.1333 29.998 11.606 29.793 11.2178 29.3828C10.4414 28.5845 10.4634 27.3101 11.2617 26.5337L17.7876 20.2056C18.5859 19.4292 19.8604 19.4512 20.6367 20.2495C21.4131 21.0479 21.3911 22.3223 20.5928 23.0986L14.0596 29.4268C13.6714 29.8076 13.166 29.998 12.6606 29.998Z" fill="#25406C"/>
</svg>
