<svg width="50" height="50" viewBox="0 0 50 50" fill="none" xmlns="http://www.w3.org/2000/svg">
<path d="M36.4047 49.9998C33.2102 49.9998 29.0862 47.851 26.1888 46.0478C22.3089 43.6333 18.129 40.2931 14.4189 36.6428L14.4054 36.6295L13.2275 35.4396C9.61246 31.6933 6.30497 27.472 3.91391 23.5542C2.12852 20.6284 0 16.4639 0 13.2381C0 9.78609 2.44461 6.12228 3.49561 4.7073C4.31555 3.60296 7.18104 0 9.61541 0C10.6151 0 11.6914 0.660617 13.1064 2.14245C14.3577 3.45249 15.5585 5.08119 16.3455 6.21671C17.4023 7.74112 18.3798 9.33731 19.0981 10.7114C20.2609 12.936 20.3954 13.8903 20.3954 14.4143C20.3954 15.4719 19.8484 16.3894 18.7695 17.1409C18.0591 17.6355 17.2065 18.008 16.382 18.3682C15.8258 18.6112 14.9379 18.9988 14.599 19.2716C14.7173 19.777 15.2339 20.9977 16.6297 23.0672C17.9303 24.9954 19.6123 27.0852 21.1319 28.661C22.6921 30.1952 24.7614 31.8939 26.6716 33.2074C28.7203 34.6164 29.9288 35.1384 30.4299 35.2578C30.6996 34.9159 31.0839 34.0192 31.3243 33.4578C31.681 32.625 32.0498 31.7638 32.54 31.0464C33.2842 29.957 34.1927 29.4049 35.2401 29.4049C35.7593 29.4049 36.704 29.5408 38.9072 30.7147C40.2679 31.44 41.8488 32.427 43.3583 33.4942C44.4826 34.289 46.0955 35.5017 47.3931 36.7651C48.8602 38.194 49.5144 39.2809 49.5144 40.2906C49.5144 42.7487 45.9467 45.6422 44.8533 46.4702C43.4516 47.5316 39.8232 49.9998 36.4047 49.9998ZM16.4657 34.535C20.025 38.036 24.0221 41.2317 27.7229 43.5343C31.3105 45.767 34.4749 47.0477 36.4047 47.0477C38.1238 47.0477 40.5743 45.9875 42.9606 44.2121C44.0065 43.4335 44.9584 42.5666 45.6413 41.771C46.2819 41.0241 46.5161 40.5369 46.5756 40.3402C46.3279 39.8031 44.8574 38.1239 41.4256 35.7333C40.0793 34.7956 38.6875 33.9338 37.5066 33.3066C36.0236 32.5194 35.4055 32.3835 35.2642 32.361C35.2091 32.3992 35.0477 32.5355 34.8021 32.9511C34.5272 33.4165 34.2631 34.0332 34.0076 34.6297C33.6933 35.364 33.3679 36.1231 32.9689 36.7359C32.3202 37.7322 31.5236 38.2379 30.6013 38.2384C30.5849 38.2384 30.5673 38.2381 30.5494 38.2374C30.1008 38.2279 28.7345 38.1987 25.0253 35.6478C22.9776 34.239 20.7536 32.4126 19.0774 30.7614L19.0512 30.7354C17.4164 29.0419 15.6079 26.7967 14.2129 24.7292C11.6865 20.9836 11.6571 19.6039 11.6477 19.1504C11.6276 18.2022 12.1233 17.384 13.1199 16.7172C13.7295 16.3098 14.4877 15.9786 15.2207 15.6583C15.8113 15.4004 16.4218 15.1338 16.8827 14.8565C17.2942 14.6088 17.4297 14.4454 17.4671 14.3899C17.4449 14.2471 17.3103 13.623 16.5306 12.1253C15.9098 10.9331 15.0561 9.52726 14.1278 8.16801C11.7602 4.70205 10.0973 3.2175 9.56563 2.96733C9.37072 3.02768 8.88837 3.26418 8.14876 3.91094C7.36062 4.59996 6.50215 5.56173 5.73155 6.61799C3.97324 9.02712 2.92357 11.502 2.92357 13.2379C2.92357 15.1865 4.19148 18.3818 6.40233 22.0048C8.68308 25.7418 11.8475 29.7782 15.3143 33.3723L16.4657 34.535ZM33.8652 23.9414C33.355 23.9414 32.903 23.5721 32.8115 23.0471C32.5493 21.5456 31.6882 20.241 30.387 19.3735C29.0672 18.494 27.4542 18.1673 25.8444 18.4539C25.2614 18.5579 24.7059 18.1647 24.6032 17.5763C24.5005 16.9879 24.8896 16.4266 25.4722 16.3229C27.6238 15.9397 29.7884 16.3819 31.5673 17.5678C33.365 18.7659 34.5563 20.5783 34.9218 22.6714C35.0245 23.2598 34.6354 23.8211 34.0527 23.9247C33.9897 23.9359 33.927 23.9414 33.8652 23.9414ZM40.3153 21.1473C39.8054 21.1473 39.3531 20.7781 39.2616 20.2534C38.7528 17.3394 37.0854 14.81 34.5667 13.1311C32.0293 11.44 28.9316 10.8114 25.8443 11.361C25.2614 11.4647 24.706 11.0718 24.6032 10.4834C24.5004 9.89501 24.8895 9.3337 25.4722 9.23009C29.1014 8.58396 32.7503 9.32769 35.7469 11.3254C38.7622 13.335 40.7599 16.3721 41.3719 19.8776C41.4746 20.466 41.0855 21.0273 40.5028 21.1309C40.4397 21.1419 40.3771 21.1473 40.3153 21.1473ZM48.927 20.3408C48.4168 20.3408 47.9647 19.9715 47.8731 19.4465C47.0051 14.4739 44.162 10.1589 39.8683 7.2972C35.5559 4.42311 30.2943 3.35419 25.053 4.28736C24.4703 4.39104 23.9147 3.99811 23.8121 3.40973C23.7094 2.82135 24.0984 2.26004 24.6811 2.15643C30.4641 1.1266 36.2771 2.31096 41.0487 5.4912C45.8388 8.68378 49.012 13.5066 49.9836 19.0708C50.0863 19.6592 49.6969 20.2205 49.1143 20.3241C49.0515 20.3353 48.989 20.3408 48.927 20.3408Z" fill="#25406C"/>
</svg>
