<svg width="50" height="40" viewBox="0 0 50 40" fill="none" xmlns="http://www.w3.org/2000/svg">
<path d="M25.0225 40C24.665 40 24.3075 39.9139 24.0394 39.6556L1.51922 17.8687C0.536196 17.0076 5.23629e-08 15.7159 0 14.4242C-5.23629e-08 13.1324 0.536196 11.8407 1.51922 10.8935L11.2601 1.50703C12.2431 0.559776 13.4943 0.0430909 14.9241 0.0430908C16.2646 0.0430908 17.6051 0.559776 18.5881 1.50703L26.0055 8.6545C26.5417 9.17119 26.5417 9.94622 26.0055 10.4629C25.4693 10.9796 24.665 10.9796 24.1288 10.4629L16.7114 3.31543C15.7284 2.36817 14.2092 2.36817 13.2262 3.31543L3.39591 12.7019C2.94908 13.1324 2.68098 13.7352 2.68098 14.4242C2.68098 15.027 2.94908 15.6297 3.39591 16.1464L25.0225 36.8999L39.2317 23.2078C39.7679 22.6911 40.5722 22.6911 41.1083 23.2078C41.3764 23.4661 41.4658 23.8106 41.4658 24.155C41.4658 24.4995 41.3764 24.844 41.1083 25.1023L25.9161 39.7417C25.7374 39.9139 25.3799 40 25.0225 40Z" fill="#25406C"/>
<path d="M40.2144 25.4467C39.857 25.4467 39.4995 25.2745 39.2314 25.1023L30.1161 16.2325L24.3073 21.7438C23.8604 22.1744 23.1455 22.2605 22.6093 21.916L16.4431 18.0409C16.0856 17.8687 15.9069 17.4381 15.8175 17.0937C15.8175 16.6631 15.9069 16.3186 16.175 16.0603L31.4566 1.42088C33.4226 -0.473628 36.7291 -0.473628 38.7846 1.42088L48.5255 10.8073C50.4915 12.7018 50.4915 15.8881 48.5255 17.8687L41.1081 25.0162C40.84 25.2745 40.5719 25.4467 40.2144 25.4467ZM30.1161 13.1324C30.4735 13.1324 30.831 13.2185 31.0991 13.4769L40.2144 22.2605L46.6488 16.0603C47.6318 15.113 47.6318 13.6491 46.6488 12.7018L36.9079 3.31539C35.9249 2.36814 34.4056 2.36814 33.4226 3.31539L19.2134 16.7492L23.1455 19.1604L29.133 13.3907C29.4011 13.2185 29.7586 13.1324 30.1161 13.1324ZM30.1161 35.1776C29.7586 35.1776 29.4011 35.0915 29.133 34.8332L25.3797 31.2164C24.8435 30.6997 24.8435 29.9247 25.3797 29.408C25.9159 28.8913 26.7202 28.8913 27.2564 29.408L31.0097 33.0248C31.5459 33.5415 31.5459 34.3165 31.0097 34.8332C30.7416 35.0054 30.3842 35.1776 30.1161 35.1776ZM35.1206 30.2691C34.7631 30.2691 34.4056 30.183 34.1375 29.9247L30.3842 26.2218C29.848 25.7051 29.848 24.93 30.3842 24.4134C30.9204 23.8967 31.7246 23.8967 32.2608 24.4134L36.0142 28.0301C36.5504 28.5468 36.5504 29.3219 36.0142 29.8385C35.8355 30.183 35.478 30.2691 35.1206 30.2691Z" fill="#25406C"/>
</svg>
