<svg width="50" height="60" viewBox="0 0 50 60" fill="none" xmlns="http://www.w3.org/2000/svg">
<path d="M9.75755 0C7.17228 -3.04773e-06 4.69267 1.02832 2.86321 2.85918C1.03374 4.69003 0.00396514 7.17375 0 9.76495V50.2648C0.00792722 52.852 1.03993 55.3303 2.86939 57.1555C4.69886 58.9808 7.17624 60.0037 9.75755 59.9997H40.1825C41.4708 60.0096 42.7482 59.7634 43.9408 59.2752C45.1334 58.7871 46.2176 58.0667 47.1307 57.1557C48.0437 56.2448 48.7674 55.1614 49.2599 53.9683C49.7524 52.7752 50.0039 51.496 50 50.2048V20.1149C50.0013 19.6279 49.9068 19.1453 49.7219 18.6949C49.5371 18.2445 49.2654 17.835 48.9224 17.4899L32.4902 1.07999C31.7904 0.392664 30.8511 0.0053276 29.8713 0L9.75755 0Z" fill="#25406C"/>
<path d="M48.8626 17.4899L32.4902 1.08001C31.9567 0.557374 31.279 0.207271 30.5447 0.0750161C30.4915 0.0659147 30.4369 0.06895 30.3851 0.0838963C30.3332 0.0988426 30.2853 0.125315 30.2451 0.161347C30.2048 0.197379 30.1732 0.242043 30.1525 0.292019C30.1318 0.341995 30.1227 0.395999 30.1257 0.450014V8.38498C30.1257 9.88598 30.4206 11.3723 30.9937 12.759C31.5668 14.1458 32.4068 15.4058 33.4658 16.4672C34.5247 17.5285 35.7818 18.3705 37.1654 18.9449C38.549 19.5193 40.0319 19.8149 41.5294 19.8149H49.4462C49.4989 19.8157 49.551 19.8048 49.599 19.7831C49.647 19.7613 49.6897 19.7293 49.7239 19.6892C49.7582 19.6492 49.7833 19.602 49.7974 19.5512C49.8114 19.5003 49.8142 19.447 49.8054 19.3949C49.6897 18.6793 49.361 18.0153 48.8626 17.4899Z" fill="#314E9F"/>
<path d="M41.9784 18H49.2666C49.1486 17.822 49.0132 17.6562 48.8626 17.505L32.4902 1.08005C32.3506 0.934323 32.2005 0.798967 32.0413 0.675049V7.96501C32.0373 10.6147 33.0806 13.1581 34.9428 15.0387C36.8051 16.9194 39.3348 17.9841 41.9784 18Z" fill="#BDD7FF"/>
<path d="M9.9072 16.0499H25.9802C27.2972 16.0499 27.9557 16.7099 27.9557 18.0299V18.0449C27.9557 19.3649 27.2972 20.0249 25.9802 20.0249H9.9072C8.59023 20.0249 7.93175 19.3649 7.93175 18.0449V18.0299C7.93175 16.7099 8.59023 16.0499 9.9072 16.0499Z" fill="white"/>
<path d="M9.9072 28.0349H38.0874C39.4043 28.0349 40.0628 28.6948 40.0628 30.0148V30.0298C40.0628 31.3498 39.4043 32.0098 38.0874 32.0098H9.9072C8.59023 32.0098 7.93175 31.3498 7.93175 30.0298V30.0148C7.93175 28.6948 8.59023 28.0349 9.9072 28.0349Z" fill="white"/>
<path d="M9.9072 40.0198H38.0874C39.4043 40.0198 40.0628 40.6798 40.0628 41.9998V42.0148C40.0628 43.3348 39.4043 43.9948 38.0874 43.9948H9.9072C8.59023 43.9948 7.93175 43.3348 7.93175 42.0148V41.9998C7.93175 40.6798 8.59023 40.0198 9.9072 40.0198Z" fill="white"/>
</svg>
