<svg width="50" height="50" viewBox="0 0 50 50" fill="none" xmlns="http://www.w3.org/2000/svg">
<path d="M11.482 20.719L22.2614 31.752C22.9929 32.498 23.9658 32.9086 24.9996 32.9086C26.0358 32.9086 27.0085 32.497 27.7391 31.7494L38.5182 20.7192C39.3601 19.8574 39.3601 18.456 38.5182 17.5944C38.1105 17.1771 37.5683 16.9474 36.9916 16.9474C36.415 16.9474 35.8728 17.1771 35.465 17.5944L27.159 26.0935V2.20955C27.159 0.990848 26.1906 0 24.9999 0C23.8092 0 22.841 0.99123 22.841 2.20955V26.0954L14.5352 17.5944C14.1275 17.1771 13.5852 16.9474 13.0086 16.9474C12.4319 16.9474 11.8898 17.1772 11.482 17.5944C11.0741 18.0117 10.8496 18.5666 10.8496 19.1567C10.8496 19.7468 11.0743 20.3017 11.482 20.719ZM40.9886 5.84396C39.798 5.84396 38.8298 6.83475 38.8298 8.05324C38.8298 9.27172 39.7983 10.2625 40.9886 10.2625C43.5767 10.2625 45.6822 12.4173 45.6822 15.0658V40.7779C45.6822 43.4264 43.5766 45.5811 40.9886 45.5811H9.01135C6.42329 45.5811 4.3178 43.4263 4.3178 40.7779V15.0658C4.3178 12.4172 6.42313 10.2625 9.01135 10.2625C10.202 10.2625 11.1702 9.27172 11.1702 8.05324C11.1702 6.83475 10.2017 5.84396 9.01135 5.84396C4.04243 5.84396 0 9.98071 0 15.0659V40.778C0 45.8631 4.04227 50 9.01135 50H40.9886C45.9576 50 50 45.8632 50 40.778V15.0659C50 9.98082 45.9577 5.84396 40.9886 5.84396Z" fill="#25406C"/>
</svg>
