<svg width="50" height="50" viewBox="0 0 50 50" fill="none" xmlns="http://www.w3.org/2000/svg">
<path d="M48.7214 6.19298L44.8607 1.52513C44.4793 1.04511 43.9936 0.6583 43.4403 0.394061C42.8871 0.129823 42.2809 -0.00489451 41.6679 0.000135865H8.33219C7.02862 0.000135865 5.88934 0.582277 5.11077 1.5287L1.27863 6.19298C0.447303 7.18022 -0.00588276 8.43091 5.76674e-05 9.72154V44.4429C5.76674e-05 47.5 2.50005 50 5.55719 50H44.4464C47.5 50 50 47.5 50 44.4429V9.72154C50 8.3894 49.5286 7.1394 48.7214 6.19298ZM25 40.3857L9.61433 25.0001H19.2286V17.3072H30.7679V25.0001H40.3822L25 40.3857ZM5.76791 5.76798L7.68934 1.92156H42.3036L44.225 5.76798H5.76791Z" fill="#25406C"/>
</svg>
