<svg width="100" height="100" viewBox="0 0 100 100" fill="none" xmlns="http://www.w3.org/2000/svg">
<path d="M79.6289 5C85.8301 5 90.8594 10.0293 90.8594 16.2305V83.418C90.8594 89.6191 85.8301 94.6484 79.6289 94.6484H21.2305C15.0293 94.6484 10 89.6191 10 83.418V16.2305C10 10.0293 15.0293 5 21.2305 5H79.6289ZM51.2402 67.3047H29.5703C27.5 67.3047 25.8203 68.9844 25.8203 71.0547C25.8203 73.125 27.5 74.8047 29.5703 74.8047H51.2402C53.3105 74.8047 54.9902 73.125 54.9902 71.0547C54.9902 68.9844 53.3105 67.3047 51.2402 67.3047ZM59.5703 46.4062H29.5703C27.5 46.4062 25.8203 48.0859 25.8203 50.1563C25.8203 52.2266 27.5 53.9062 29.5703 53.9062H59.5703C61.6406 53.9062 63.3203 52.2266 63.3203 50.1563C63.3203 48.0859 61.6406 46.4062 59.5703 46.4062ZM72.0703 25.6055H29.5703C27.5 25.6055 25.8203 27.2852 25.8203 29.3555C25.8203 31.4258 27.5 33.1055 29.5703 33.1055H72.0703C74.1406 33.1055 75.8203 31.4258 75.8203 29.3555C75.8203 27.2852 74.1406 25.6055 72.0703 25.6055Z" fill="#25406C"/>
</svg>
