<svg width="51" height="61" viewBox="0 0 51 61" fill="none" xmlns="http://www.w3.org/2000/svg">
<path d="M43.2556 0.299999C47.0901 0.299999 50.2 3.66601 50.2 7.81634V52.7837C50.2 56.934 47.0901 60.3 43.2556 60.3H7.14446C3.30992 60.3 0.200012 56.934 0.200012 52.7837V7.81634C0.200012 3.66601 3.30992 0.299999 7.14446 0.299999H43.2556ZM25.7012 41.9993H12.3015C11.0213 41.9993 9.98262 43.1235 9.98262 44.5092C9.98262 45.8948 11.0213 47.019 12.3015 47.019H25.7012C26.9814 47.019 28.0201 45.8948 28.0201 44.5092C28.0201 43.1235 26.9814 41.9993 25.7012 41.9993ZM30.8522 28.0124H12.3015C11.0213 28.0124 9.98262 29.1366 9.98262 30.5222C9.98262 31.9078 11.0213 33.032 12.3015 33.032H30.8522C32.1324 33.032 33.171 31.9078 33.171 30.5222C33.171 29.1366 32.1324 28.0124 30.8522 28.0124ZM38.5817 14.0908H12.3015C11.0213 14.0908 9.98262 15.215 9.98262 16.6007C9.98262 17.9863 11.0213 19.1105 12.3015 19.1105H38.5817C39.8618 19.1105 40.9005 17.9863 40.9005 16.6007C40.9005 15.215 39.8618 14.0908 38.5817 14.0908Z" fill="#25406C"/>
</svg>
