<svg width="50" height="50" viewBox="0 0 50 50" fill="none" xmlns="http://www.w3.org/2000/svg">
<path d="M5.65422 4.66884C5.15436 4.66884 4.67496 4.86784 4.32151 5.22206C3.96805 5.57628 3.76948 6.0567 3.76948 6.55764V17.8904C3.76948 18.3914 3.96805 18.8718 4.32151 19.226C4.67496 19.5802 5.15436 19.7792 5.65422 19.7792H16.9627C17.4625 19.7792 17.9419 19.5802 18.2954 19.226C18.6488 18.8718 18.8474 18.3914 18.8474 17.8904V6.55764C18.8474 6.0567 18.6488 5.57628 18.2954 5.22206C17.9419 4.86784 17.4625 4.66884 16.9627 4.66884H5.65422ZM5.65422 0.891247H16.9627C18.4623 0.891247 19.9004 1.48824 20.9608 2.5509C22.0212 3.61355 22.6169 5.05482 22.6169 6.55764V17.8904C22.6169 19.3933 22.0212 20.8345 20.9608 21.8972C19.9004 22.9598 18.4623 23.5568 16.9627 23.5568H5.65422C4.15463 23.5568 2.71645 22.9598 1.65608 21.8972C0.595711 20.8345 0 19.3933 0 17.8904V6.55764C0 5.05482 0.595711 3.61355 1.65608 2.5509C2.71645 1.48824 4.15463 0.891247 5.65422 0.891247ZM5.65422 31.112C5.15436 31.112 4.67496 31.311 4.32151 31.6652C3.96805 32.0195 3.76948 32.4999 3.76948 33.0008V44.3336C3.76948 44.8345 3.96805 45.315 4.32151 45.6692C4.67496 46.0234 5.15436 46.2224 5.65422 46.2224H16.9627C17.4625 46.2224 17.9419 46.0234 18.2954 45.6692C18.6488 45.315 18.8474 44.8345 18.8474 44.3336V33.0008C18.8474 32.4999 18.6488 32.0195 18.2954 31.6652C17.9419 31.311 17.4625 31.112 16.9627 31.112H5.65422ZM5.65422 27.3344H16.9627C18.4623 27.3344 19.9004 27.9314 20.9608 28.9941C22.0212 30.0567 22.6169 31.498 22.6169 33.0008V44.3336C22.6169 45.8364 22.0212 47.2777 20.9608 48.3404C19.9004 49.403 18.4623 50 16.9627 50H5.65422C4.15463 50 2.71645 49.403 1.65608 48.3404C0.595711 47.2777 0 45.8364 0 44.3336V33.0008C0 31.498 0.595711 30.0567 1.65608 28.9941C2.71645 27.9314 4.15463 27.3344 5.65422 27.3344ZM32.0406 31.112C31.5407 31.112 31.0613 31.311 30.7079 31.6652C30.3544 32.0195 30.1558 32.4999 30.1558 33.0008V44.3336C30.1558 44.8345 30.3544 45.315 30.7079 45.6692C31.0613 46.0234 31.5407 46.2224 32.0406 46.2224H43.349C43.8489 46.2224 44.3283 46.0234 44.6817 45.6692C45.0352 45.315 45.2338 44.8345 45.2338 44.3336V33.0008C45.2338 32.4999 45.0352 32.0195 44.6817 31.6652C44.3283 31.311 43.8489 31.112 43.349 31.112H32.0406ZM32.0406 27.3344H43.349C44.8486 27.3344 46.2868 27.9314 47.3472 28.9941C48.4075 30.0567 49.0032 31.498 49.0032 33.0008V44.3336C49.0032 45.8364 48.4075 47.2777 47.3472 48.3404C46.2868 49.403 44.8486 50 43.349 50H32.0406C30.541 50 29.1028 49.403 28.0424 48.3404C26.9821 47.2777 26.3864 45.8364 26.3864 44.3336V33.0008C26.3864 31.498 26.9821 30.0567 28.0424 28.9941C29.1028 27.9314 30.541 27.3344 32.0406 27.3344ZM29.8185 10.9415C29.6432 11.117 29.5042 11.3253 29.4094 11.5546C29.3145 11.7839 29.2657 12.0296 29.2657 12.2779C29.2657 12.5261 29.3145 12.7719 29.4094 13.0012C29.5042 13.2305 29.6432 13.4388 29.8185 13.6142L36.4151 20.225C36.5901 20.4006 36.798 20.5399 37.0268 20.635C37.2556 20.73 37.5008 20.7789 37.7485 20.7789C37.9962 20.7789 38.2415 20.73 38.4703 20.635C38.6991 20.5399 38.9069 20.4006 39.082 20.225L45.6786 13.6142C45.8538 13.4388 45.9928 13.2305 46.0877 13.0012C46.1825 12.7719 46.2313 12.5261 46.2313 12.2779C46.2313 12.0296 46.1825 11.7839 46.0877 11.5546C45.9928 11.3253 45.8538 11.117 45.6786 10.9415L39.082 4.33075C38.9069 4.15513 38.6991 4.01582 38.4703 3.92077C38.2415 3.82571 37.9962 3.77679 37.7485 3.77679C37.5008 3.77679 37.2556 3.82571 37.0268 3.92077C36.798 4.01582 36.5901 4.15513 36.4151 4.33075L29.8185 10.9415ZM27.1534 8.27078L33.75 1.65999C34.2751 1.13371 34.8985 0.716243 35.5845 0.43142C36.2706 0.146597 37.0059 0 37.7485 0C38.4911 0 39.2264 0.146597 39.9125 0.43142C40.5986 0.716243 41.2219 1.13371 41.747 1.65999L48.3436 8.27078C48.8687 8.79697 49.2853 9.42167 49.5695 10.1092C49.8537 10.7968 50 11.5337 50 12.2779C50 13.0221 49.8537 13.759 49.5695 14.4465C49.2853 15.1341 48.8687 15.7588 48.3436 16.285L41.747 22.8957C41.2219 23.422 40.5986 23.8395 39.9125 24.1243C39.2264 24.4091 38.4911 24.5557 37.7485 24.5557C37.0059 24.5557 36.2706 24.4091 35.5845 24.1243C34.8985 23.8395 34.2751 23.422 33.75 22.8957L27.1534 16.285C26.6283 15.7588 26.2117 15.1341 25.9275 14.4465C25.6433 13.759 25.497 13.0221 25.497 12.2779C25.497 11.5337 25.6433 10.7968 25.9275 10.1092C26.2117 9.42167 26.6283 8.79697 27.1534 8.27078Z" fill="#25406C"/>
</svg>
