<svg width="50" height="50" viewBox="0 0 50 50" fill="none" xmlns="http://www.w3.org/2000/svg">
<path d="M48.0346 15.2683C46.7754 12.2911 44.973 9.6177 42.6777 7.32233C40.3824 5.02696 37.7089 3.22465 34.7317 1.96539C31.6484 0.661226 28.3742 0 25 0C21.6258 0 18.3517 0.661226 15.2683 1.96539C12.2911 3.22465 9.6177 5.02696 7.32233 7.32233C5.02696 9.6177 3.22465 12.2911 1.96539 15.2683C0.661226 18.3517 0 21.6258 0 25C0 28.3742 0.661226 31.6484 1.96539 34.7317C3.22465 37.7089 5.02696 40.3824 7.32233 42.6777C9.6177 44.973 12.2911 46.7754 15.2683 48.0346C18.3517 49.3387 21.6258 50 25 50C28.3742 50 31.6484 49.3387 34.7317 48.0346C37.7089 46.7753 40.3824 44.973 42.6777 42.6777C44.973 40.3824 46.7754 37.7089 48.0346 34.7317C49.3387 31.6484 50 28.3742 50 25C50 21.6258 49.3387 18.3517 48.0346 15.2683ZM26.8519 17.1635C27.8687 17.1495 28.8828 17.124 29.8922 17.0844C31.6524 17.0152 33.4107 16.9056 35.1659 16.7558C35.7537 18.7452 36.1291 20.8827 36.288 23.1481H26.8519V17.1635ZM26.8519 13.4558V4.85914C27.8714 5.56377 29.1304 6.58628 30.3863 7.99553C31.7416 9.51637 32.881 11.2443 33.7881 13.1471C31.3612 13.3292 29.036 13.4239 26.8519 13.4558ZM23.1482 5.07835V13.4525C21.1516 13.42 19.1562 13.3369 17.1638 13.2031C16.948 13.1886 16.7323 13.1734 16.5166 13.1576C17.396 11.3107 18.4944 9.62806 19.7965 8.13963C20.9703 6.79791 22.1531 5.79646 23.1482 5.07835ZM16.834 16.8929C18.9361 17.0359 21.0415 17.1247 23.1482 17.1595V23.1481H14.022C14.1807 20.8866 14.5548 18.7523 15.1409 16.7659C15.6879 16.8108 16.2526 16.8534 16.834 16.8929ZM10.3102 23.1481H3.78425C4.01088 20.5002 4.72222 17.9526 5.87563 15.609C7.04791 15.8161 8.93327 16.1159 11.3969 16.3984C10.8238 18.5222 10.4604 20.7782 10.3102 23.1481ZM10.2605 26.8518C10.3748 29.1171 10.8226 31.3797 11.5974 33.611C9.04571 33.899 7.09525 34.2082 5.89016 34.4207C4.72812 32.0689 4.0118 29.511 3.78425 26.8518L10.2605 26.8518ZM13.9699 26.8518H23.1482V32.8731C21.0434 32.9079 18.9342 32.9964 16.834 33.1394C16.3473 33.1725 15.8727 33.2078 15.4099 33.2448C14.5811 31.1312 14.0986 28.9888 13.9699 26.8518ZM23.1482 36.58V44.2022C22.1659 43.2834 21.0316 42.1211 19.9052 40.7453C18.8599 39.4685 17.9439 38.1586 17.1634 36.8294C19.1559 36.6956 21.1515 36.6124 23.1482 36.58ZM26.8519 44.4888V36.5765C28.8419 36.6056 30.9481 36.6866 33.1412 36.8385C32.3619 38.1646 31.4478 39.4714 30.4048 40.7453C29.1578 42.2684 27.9012 43.5299 26.8519 44.4888ZM29.8922 32.948C28.8791 32.9084 27.8656 32.8817 26.8519 32.8679V26.8518H36.3402C36.2113 28.9916 35.7278 31.1368 34.8969 33.2531C33.2311 33.1152 31.5624 33.0135 29.8922 32.948ZM40.0496 26.8518H46.2158C45.9885 29.508 45.2735 32.0631 44.1138 34.4127C42.3177 34.1068 40.5139 33.8475 38.7044 33.635C39.4843 31.3959 39.9349 29.1252 40.0496 26.8518ZM39.9999 23.1481C39.8491 20.769 39.4835 18.5047 38.9067 16.3738C40.6533 16.1652 42.3945 15.9129 44.1285 15.6171C45.2795 17.9585 45.9895 20.5032 46.2159 23.1481H39.9999ZM40.0588 9.94125C40.7673 10.6499 41.4256 11.4071 42.029 12.2072C40.5843 12.4306 39.1349 12.6232 37.682 12.7847C36.5518 10.0772 35.0301 7.63946 33.1512 5.53136C33.0484 5.41605 32.9445 5.30171 32.8395 5.18836C35.5123 6.24525 37.9653 7.84779 40.0588 9.94125ZM17.6423 5.00457C17.4786 5.17777 17.3174 5.35337 17.1588 5.5313C15.275 7.64501 13.75 10.09 12.619 12.8062C10.7465 12.6046 9.17684 12.387 7.97626 12.2003C8.57826 11.4028 9.23485 10.6479 9.94131 9.94125C12.1599 7.72262 14.7824 6.05514 17.6423 5.00457ZM9.94131 40.0587C9.24327 39.3604 8.59391 38.615 7.99779 37.8279C9.30138 37.6255 11.0377 37.3873 13.1266 37.1724C14.1815 39.2292 15.5172 41.2439 17.112 43.1798C17.7703 43.9782 18.4601 44.7503 19.1795 45.4943C15.7213 44.5177 12.552 42.6694 9.94131 40.0587ZM31.252 45.368C31.9277 44.6631 32.5769 43.9331 33.1981 43.1797C34.7878 41.2501 36.1198 39.242 37.1732 37.1921C38.7892 37.3638 40.4009 37.5738 42.007 37.8217C41.4096 38.6111 40.7586 39.3585 40.0588 40.0586C37.557 42.5605 34.5423 44.3626 31.252 45.368Z" fill="#25406C"/>
</svg>
