<svg width="35" height="35" viewBox="0 0 35 35" fill="none" xmlns="http://www.w3.org/2000/svg">
<path d="M17.5 0C7.83494 0 0 7.83494 0 17.5C0 27.1651 7.83494 35 17.5 35C27.1651 35 35 27.1651 35 17.5C35 7.83494 27.1651 0 17.5 0ZM12.9331 20.9705C12.8994 21.5313 12.6042 21.8139 12.0434 21.8139C11.7313 21.8139 11.4825 21.7042 11.297 21.4849L7.50181 16.4753H7.45542V20.9705C7.4259 21.5313 7.12651 21.8139 6.56566 21.8139C6.00482 21.8139 5.70542 21.5313 5.6759 20.9705V14.1307C5.70542 13.5361 6.00482 13.2241 6.56566 13.1946C6.87771 13.2241 7.12651 13.3675 7.31626 13.6163L11.1072 18.6723H11.1536V14.1307C11.1831 13.5361 11.4825 13.2241 12.0434 13.1946C12.6084 13.2241 12.9036 13.5404 12.9331 14.1307V20.9705ZM17.9428 21.8096H14.8518C14.2867 21.7801 13.9916 21.4807 13.962 20.9199V14.3163C13.962 13.6289 14.2572 13.2873 14.8518 13.2873H17.85C18.3813 13.3169 18.6596 13.5825 18.6934 14.0843C18.6639 14.6157 18.3813 14.8982 17.85 14.9277H15.7416V16.6608H17.7066C18.238 16.6904 18.5331 16.9729 18.5964 17.5042C18.5331 18.0355 18.238 18.3181 17.7066 18.3476H15.7416V20.1735H17.9428C18.4741 20.1735 18.7524 20.4392 18.7861 20.9705C18.7566 21.4976 18.4741 21.7801 17.9428 21.8096ZM29.653 14.409L28.156 20.9705C27.9705 21.5313 27.5783 21.8139 26.9837 21.8139C26.3596 21.8139 25.9548 21.5482 25.7651 21.0169L24.3608 16.3783L22.9566 21.0169C22.7669 21.5482 22.3789 21.8139 21.7843 21.8139C21.1602 21.8139 20.7681 21.5313 20.612 20.9705L19.0687 14.4133C19.0349 14.291 19.0223 14.1476 19.0223 13.9916C19.0855 13.4898 19.3639 13.2241 19.8657 13.1946C20.397 13.1651 20.7259 13.4602 20.8482 14.0843L21.8307 19.1446H21.8771L23.4205 13.8988C23.6102 13.4602 23.9223 13.2283 24.3566 13.1946C24.8247 13.1946 25.1367 13.4265 25.2928 13.8988L26.8361 19.1446H26.8825L27.9114 14.0843C28.0042 13.4898 28.3163 13.1946 28.8476 13.1946C29.3494 13.2241 29.6277 13.4898 29.691 13.9916C29.7036 14.1476 29.6867 14.2867 29.653 14.409Z" fill="#25406C"/>
</svg>
