<svg width="80" height="91" viewBox="0 0 80 91" fill="none" xmlns="http://www.w3.org/2000/svg">
<path d="M60.3145 45.057C55.029 49.72 48.012 52.582 40.279 52.582C32.431 52.582 25.2985 49.627 19.9895 44.826C7.6405 48.0575 0 59.091 0 72.2715V78.9885C0 94.708 79.335 94.708 79.335 78.9885V72.2715C79.3345 59.438 72.087 48.589 60.3145 45.057ZM40.279 47.804C53.967 47.804 65.093 37.1165 65.093 23.9135C65.093 10.7105 53.99 0 40.279 0C26.614 0 15.4885 10.7105 15.4885 23.9135C15.4885 37.117 26.614 47.804 40.279 47.804Z" fill="#25406C"/>
</svg>
