<svg width="50" height="60" viewBox="0 0 50 60" fill="none" xmlns="http://www.w3.org/2000/svg">
<path d="M38.0125 29.7805C34.6814 32.8625 30.259 34.7542 25.3854 34.7542C20.4393 34.7542 15.9441 32.8011 12.5982 29.6278C4.81534 31.7637 0 39.0563 0 47.768V52.2076C0 62.5975 50 62.5975 50 52.2076V47.768C49.9997 39.2857 45.432 32.115 38.0125 29.7805ZM25.3854 31.5962C34.0121 31.5962 41.0241 24.5322 41.0241 15.8057C41.0241 7.07913 34.0266 0 25.3854 0C16.7732 0 9.76146 7.07913 9.76146 15.8057C9.76146 24.5326 16.7732 31.5962 25.3854 31.5962Z" fill="#25406C"/>
</svg>
