<svg width="50" height="50" viewBox="0 0 50 50" fill="none" xmlns="http://www.w3.org/2000/svg">
<g clip-path="url(#clip0_76_72)">
<path d="M24.9756 0.0244141C11.1891 0.0244141 0 11.2135 0 25C0 38.7866 11.1891 49.9756 24.9756 49.9756C38.7621 49.9756 49.9512 38.7866 49.9512 25C49.9512 11.2135 38.7621 0.0244141 24.9756 0.0244141ZM24.9756 45.9795C13.3869 45.9795 3.9961 36.5887 3.9961 25C3.9961 13.4113 13.3869 4.02051 24.9756 4.02051C36.5643 4.02051 45.9551 13.4113 45.9551 25C45.9551 36.5887 36.5643 45.9795 24.9756 45.9795Z" fill="#25406C"/>
<path d="M27.1735 19.805C27.1735 18.0068 26.0246 16.9329 24.0765 16.9329C22.9026 16.9329 21.9036 17.2825 20.9545 18.0068C20.2302 18.5313 19.2812 18.5313 18.6068 17.9319L18.5819 17.9069C17.7077 17.1077 17.7577 15.6591 18.6818 14.9598C20.3302 13.711 22.3032 12.9617 24.601 12.9617C28.8468 12.9617 31.9438 15.1346 31.9438 19.3555C31.9438 23.8261 27.0736 24.8002 26.2993 28.2468C26.0995 29.121 25.3752 29.7204 24.5011 29.7204H23.8018C22.578 29.7204 21.6788 28.5215 22.0285 27.3227C23.0275 23.901 27.1735 22.5773 27.1735 19.805ZM24.0515 32.0431C25.5001 32.0431 26.5491 33.0671 26.5491 34.5157C26.5491 35.9643 25.5001 37.0382 24.0515 37.0382C22.6029 37.0382 21.554 35.9892 21.554 34.5157C21.554 33.0421 22.6279 32.0431 24.0515 32.0431Z" fill="#25406C"/>
</g>
<defs>
<clipPath id="clip0_76_72">
<rect width="50" height="50" fill="white"/>
</clipPath>
</defs>
</svg>
