<svg width="50" height="50" viewBox="0 0 50 50" fill="none" xmlns="http://www.w3.org/2000/svg">
<path d="M49.985 39.5833C49.695 45.3738 44.6701 50 38.5376 50H38.3299H11.6701H11.4626C5.32995 50 0.302393 45.3738 0.0126095 39.5833H0V39.0522V11.0404V10.9475V10.419H0.0126095C0.302393 4.62628 5.32995 0 11.4626 0H32.6299V0.00247104H34.2575L29.3149 3.98088H28.07H25.6276H20.2974H11.4626C7.44247 3.98088 4.16756 7.10731 4.16756 10.9475V12.2858V12.3883V19.3881V37.4715V37.4857V39.0522C4.16756 42.8927 7.44247 46.0189 11.4626 46.0189H20.2974H29.7026H38.5376C42.5575 46.0189 45.8324 42.8928 45.8324 39.0522V37.6118V37.5688V30.6117V19.3833L50 15.4714V39.0522V39.5833H49.985ZM35.5924 22.1096L32.5701 25.1475C31.5675 26.1239 29.0299 28.5739 28.2276 29.3834C27.4224 30.1977 26.755 30.8666 26.2276 31.3928C25.7 31.9191 25.3825 32.2213 25.285 32.2953C25.0299 32.5191 24.7424 32.7548 24.4149 33.0071C24.09 33.2572 23.75 33.4572 23.3976 33.607C23.0451 33.7834 22.53 33.9929 21.8499 34.25C21.1699 34.5 20.46 34.7427 19.7149 34.9811C18.9724 35.2191 18.2674 35.4239 17.6024 35.6C16.9349 35.7714 16.4374 35.8882 16.1098 35.9404C15.4324 36.0144 14.98 35.912 14.7524 35.6382C14.5251 35.3642 14.4626 34.8977 14.5625 34.2525C14.615 33.9 14.7325 33.3928 14.9227 32.7309C15.1099 32.0667 15.3126 31.3787 15.525 30.6668C15.7401 29.9547 15.9475 29.2953 16.1474 28.6954C16.3501 28.0954 16.5125 27.6811 16.6399 27.4573C16.7899 27.1096 16.9601 26.7881 17.15 26.5001C17.3375 26.2119 17.6074 25.8929 17.9602 25.543C18.1099 25.3929 18.4626 25.0357 19.0176 24.4739C19.5699 23.9095 21.8901 21.6621 22.7199 20.8358L25.475 18.0953L28.535 15.0573L36.355 7.27608L43.4749 14.1548L35.5924 22.1096ZM48.3601 9.29272C47.985 9.66667 47.6475 9.99288 47.3501 10.2739C47.0524 10.5549 46.7925 10.8049 46.5725 11.0215C46.3225 11.2715 46.0899 11.4905 45.8699 11.6761L38.785 4.80009C39.1626 4.45711 39.6077 4.04529 40.1251 3.56193C40.6425 3.07869 41.075 2.69749 41.4175 2.41651C41.8599 2.07387 42.3126 1.83328 42.7849 1.69296C43.215 1.56431 43.6375 1.50237 44.0551 1.5049H44.1699C44.3999 1.51438 44.6276 1.53558 44.8476 1.57132C44.8426 1.56902 44.8324 1.57132 44.8274 1.56902C44.8324 1.56902 44.8425 1.56902 44.8476 1.57132C45.8001 1.74037 46.7975 2.22844 47.6451 3.0095C48.1151 3.44534 48.4975 3.93089 48.7749 4.43091C49.1851 5.16899 49.38 5.94057 49.3425 6.64516C49.3425 6.73083 49.3501 6.81903 49.3501 6.90718C49.3501 7.31429 49.2701 7.71892 49.1125 8.12379C48.9551 8.52843 48.7025 8.91911 48.3601 9.29272Z" fill="#25406C"/>
</svg>
