<svg width="50" height="50" viewBox="0 0 50 50" fill="none" xmlns="http://www.w3.org/2000/svg">
<path d="M27.8494 28.295H49.7187V32.0476H27.8494V28.295ZM27.8494 37.2183H49.7187V40.9709H27.8494V37.2183ZM27.8494 46.1422H49.7187V49.8948H27.8494V46.1422Z" fill="#25406C"/>
<path d="M25.0003 35.9403C18.9647 35.9403 14.0598 31.0322 14.0598 24.9998C14.0598 18.9673 18.9679 14.0592 25.0003 14.0592C31.0328 14.0592 35.9377 18.9673 35.9377 24.9998H32.1882C32.1885 23.5781 31.7671 22.1882 30.9774 21.006C30.1878 19.8238 29.0653 18.9023 27.7519 18.3581C26.4385 17.8139 24.9932 17.6713 23.5988 17.9486C22.2044 18.2258 20.9235 18.9102 19.9181 19.9154C18.9127 20.9206 18.228 22.2014 17.9506 23.5958C17.6731 24.9901 17.8154 26.4354 18.3594 27.7489C18.9034 29.0624 19.8247 30.1851 21.0068 30.975C22.1889 31.7648 23.5786 32.1864 25.0003 32.1864V35.9403Z" fill="#25406C"/>
<path d="M25.0115 50H20.6379C19.8141 49.999 19.0243 49.6713 18.4417 49.0888C17.8592 48.5062 17.5315 47.7164 17.5305 46.8926V43.1667L14.8761 45.8212C14.592 46.1106 14.2531 46.3407 13.8792 46.4979C13.5054 46.6551 13.1039 46.7364 12.6983 46.7371C12.2867 46.74 11.8786 46.6611 11.4978 46.5048C11.1169 46.3485 10.771 46.118 10.4801 45.8268L4.24978 39.5952C3.95988 39.3075 3.72967 38.9654 3.57239 38.5884C3.4151 38.2115 3.33383 37.8072 3.33325 37.3988C3.33267 36.9904 3.4128 36.5858 3.56902 36.2085C3.72523 35.8311 3.95447 35.4883 4.24356 35.1998L6.87992 32.5634H3.10738C2.28356 32.5624 1.49376 32.2347 0.911223 31.6522C0.328689 31.0697 0.000987999 30.2799 0 29.4561V20.6379C0.000987999 19.8141 0.328689 19.0243 0.911223 18.4417C1.49376 17.8592 2.28356 17.5315 3.10738 17.5305H6.83326L4.17947 14.8767C3.88966 14.5891 3.65953 14.247 3.5023 13.8701C3.34507 13.4932 3.26383 13.089 3.26325 12.6806C3.26268 12.2723 3.34277 11.8679 3.49893 11.4905C3.6551 11.1132 3.88426 10.7705 4.17325 10.482L10.4048 4.24854C10.6889 3.95897 11.0277 3.72881 11.4016 3.57146C11.7755 3.41411 12.177 3.33271 12.5826 3.33201H12.6044C13.0128 3.33073 13.4174 3.41054 13.7948 3.5668C14.1721 3.72306 14.5147 3.95267 14.8027 4.24232L17.4397 6.8793V3.10738C17.4407 2.28356 17.7684 1.49376 18.3509 0.911223C18.9334 0.328689 19.7232 0.000987999 20.5471 0H29.3621C30.1859 0.000987999 30.9757 0.328689 31.5583 0.911223C32.1408 1.49376 32.4685 2.28356 32.4695 3.10738V6.83326L35.1226 4.1801C35.4067 3.89042 35.7455 3.66014 36.1194 3.50268C36.4933 3.34522 36.8947 3.26373 37.3004 3.26294C37.712 3.2604 38.12 3.33955 38.5008 3.49581C38.8815 3.65207 39.2275 3.88233 39.5186 4.17325L45.7515 10.4086C46.0411 10.6963 46.2711 11.0384 46.4283 11.4152C46.5854 11.792 46.6665 12.1962 46.6671 12.6045C46.6676 13.0127 46.5875 13.4171 46.4313 13.7943C46.2751 14.1716 46.046 14.5142 45.7571 14.8027L43.1201 17.4397H46.8926C47.7159 17.4407 48.5052 17.7679 49.0877 18.3498C49.6701 18.9317 49.9982 19.7207 50 20.5439V24.9997H46.2474V21.1892H40.083L39.6512 19.9155C39.4431 19.3066 39.196 18.7118 38.9114 18.1347L38.3202 16.9301L42.6447 12.6056L37.3241 7.28499L32.9766 11.6325L31.7689 11.0414C31.1917 10.7602 30.5969 10.517 29.9881 10.3134L28.72 9.88153V3.75076H21.1911V9.917L19.9155 10.3463C19.3066 10.5544 18.7118 10.8015 18.1347 11.0862L16.9301 11.6773L12.6044 7.3553L7.28375 12.6759L11.6318 17.024L11.0407 18.2287C10.7595 18.8058 10.5164 19.4006 10.3127 20.0095L9.88091 21.2831H3.75263V28.8121H9.917L10.3488 30.0857C10.5569 30.6946 10.804 31.2895 11.0886 31.8665L11.6798 33.0712L7.3553 37.3956L12.6759 42.7163L17.0222 38.3669L18.2268 38.958C18.8043 39.2395 19.3996 39.4829 20.0088 39.6866L21.2825 40.1185V46.2486H25.0115V50Z" fill="#25406C"/>
</svg>
