<svg width="50" height="60" viewBox="0 0 50 60" fill="none" xmlns="http://www.w3.org/2000/svg">
<path d="M37.5 15H18.05C17.6853 15 17.3356 15.1581 17.0777 15.4394C16.8199 15.7207 16.675 16.1022 16.675 16.5C16.675 16.8978 16.8199 17.2794 17.0777 17.5607C17.3356 17.842 17.6853 18 18.05 18H37.5C37.8647 18 38.2144 17.842 38.4723 17.5607C38.7301 17.2794 38.875 16.8978 38.875 16.5C38.875 16.1022 38.7301 15.7207 38.4723 15.4394C38.2144 15.1581 37.8647 15 37.5 15ZM12.5 15C12.133 15 11.7806 15.1571 11.5188 15.4377C11.2569 15.7182 11.1066 16.0997 11.1 16.5C11.1066 16.9003 11.2569 17.2818 11.5188 17.5624C11.7806 17.8429 12.133 18.0001 12.5 18C12.8647 18 13.2144 17.842 13.4723 17.5607C13.7301 17.2794 13.875 16.8978 13.875 16.5C13.875 16.1022 13.7301 15.7207 13.4723 15.4394C13.2144 15.1581 12.8647 15 12.5 15ZM37.5 24H18.05C17.6853 24 17.3356 24.158 17.0777 24.4393C16.8199 24.7207 16.675 25.1022 16.675 25.5C16.675 25.8978 16.8199 26.2794 17.0777 26.5607C17.3356 26.842 17.6853 27 18.05 27H37.5C37.8647 27 38.2144 26.842 38.4723 26.5607C38.7301 26.2794 38.875 25.8978 38.875 25.5C38.875 25.1022 38.7301 24.7207 38.4723 24.4393C38.2144 24.158 37.8647 24 37.5 24ZM12.5 24C12.133 23.9999 11.7806 24.1571 11.5188 24.4377C11.2569 24.7182 11.1066 25.0997 11.1 25.5C11.1066 25.9003 11.2569 26.2818 11.5188 26.5624C11.7806 26.8429 12.133 27.0001 12.5 27C12.8647 27 13.2144 26.842 13.4723 26.5607C13.7301 26.2794 13.875 25.8978 13.875 25.5C13.875 25.1022 13.7301 24.7207 13.4723 24.4393C13.2144 24.158 12.8647 24 12.5 24ZM37.5 33H18.05C17.6853 33 17.3356 33.158 17.0777 33.4393C16.8199 33.7206 16.675 34.1022 16.675 34.5C16.675 34.8978 16.8199 35.2793 17.0777 35.5607C17.3356 35.842 17.6853 36 18.05 36H37.5C37.8647 36 38.2144 35.842 38.4723 35.5607C38.7301 35.2793 38.875 34.8978 38.875 34.5C38.875 34.1022 38.7301 33.7206 38.4723 33.4393C38.2144 33.158 37.8647 33 37.5 33ZM12.5 33C12.133 32.9999 11.7806 33.1571 11.5188 33.4376C11.2569 33.7182 11.1066 34.0997 11.1 34.5C11.1066 34.9003 11.2569 35.2818 11.5188 35.5623C11.7806 35.8429 12.133 36.0001 12.5 36C12.8647 36 13.2144 35.842 13.4723 35.5607C13.7301 35.2793 13.875 34.8978 13.875 34.5C13.875 34.1022 13.7301 33.7206 13.4723 33.4393C13.2144 33.158 12.8647 33 12.5 33ZM37.5 42H18.05C17.8694 42 17.6906 42.0388 17.5238 42.1142C17.357 42.1895 17.2054 42.3 17.0777 42.4393C16.95 42.5786 16.8488 42.744 16.7797 42.926C16.7106 43.1079 16.675 43.303 16.675 43.5C16.675 43.8978 16.8199 44.2793 17.0777 44.5606C17.3356 44.8419 17.6853 45 18.05 45H37.5C37.8647 45 38.2144 44.8419 38.4723 44.5606C38.7301 44.2793 38.875 43.8978 38.875 43.5C38.875 43.1022 38.7301 42.7206 38.4723 42.4393C38.2144 42.158 37.8647 42 37.5 42ZM12.5 42C12.133 41.9999 11.7806 42.1571 11.5188 42.4376C11.2569 42.7182 11.1066 43.0997 11.1 43.5C11.1066 43.9003 11.2569 44.2818 11.5188 44.5623C11.7806 44.8429 12.133 45 12.5 45C12.844 45.0015 13.1761 44.8623 13.4306 44.6099C13.6852 44.3575 13.8437 44.0101 13.875 43.6363C13.8924 43.4282 13.8698 43.2184 13.8085 43.0204C13.7473 42.8223 13.6487 42.6404 13.5193 42.4864C13.3898 42.3323 13.2323 42.2095 13.0567 42.1257C12.8812 42.0419 12.6916 41.9991 12.5 42ZM43.05 5.00109e-05H6.95C5.11768 -0.00721826 3.35741 0.778021 2.05474 2.18377C0.752077 3.58952 0.0132177 5.50119 0 7.50004V52.5C0.0132177 54.4988 0.752077 56.4105 2.05474 57.8162C3.35741 59.222 5.11768 60.0072 6.95 59.9999H43.05C44.8823 60.0072 46.6426 59.222 47.9453 57.8162C49.2479 56.4105 49.9868 54.4988 50 52.5V7.50004C49.9868 5.50119 49.2479 3.58952 47.9453 2.18377C46.6426 0.778021 44.8823 -0.00721826 43.05 5.00109e-05ZM3.45 51.8181V8.18186C3.44334 7.59836 3.54337 7.01927 3.74423 6.47843C3.94509 5.93759 4.24276 5.44585 4.61984 5.03195C4.99692 4.61806 5.44584 4.29031 5.94036 4.06787C6.43489 3.84542 6.96509 3.73274 7.5 3.73641H42.5C43.0349 3.73274 43.5651 3.84542 44.0596 4.06787C44.5542 4.29031 45.0031 4.61806 45.3802 5.03195C45.7572 5.44585 46.0549 5.93759 46.2558 6.47843C46.4566 7.01927 46.5567 7.59836 46.55 8.18186V51.8181C46.5533 52.4006 46.451 52.9781 46.2489 53.5173C46.0469 54.0565 45.7491 54.5468 45.3727 54.9599C44.9963 55.3731 44.5487 55.701 44.0557 55.9247C43.5627 56.1484 43.034 56.2636 42.5 56.2636H7.5C6.96509 56.2673 6.43489 56.1546 5.94036 55.9321C5.44584 55.7097 4.99692 55.3819 4.61984 54.968C4.24276 54.5542 3.94509 54.0624 3.74423 53.5216C3.54337 52.9807 3.44334 52.4016 3.45 51.8181Z" fill="#25406C"/>
</svg>
